<?xml version="1.0" encoding="UTF-8" standalone="no"?><!-- Generator: Gravit.io --><svg xmlns="http://www.w3.org/2000/svg" xmlns:xlink="http://www.w3.org/1999/xlink" style="isolation:isolate" viewBox="807.256 1182 513.005 512" width="513.005pt" height="512pt"><g><rect x="808.262" y="1182" width="512" height="512" transform="matrix(1,0,0,1,0,0)" fill="none"/><g><defs><filter id="GXJRYmcxnWx5tyEaG5MygyK8vHZFAmbG" x="-200%" y="-200%" width="400%" height="400%" filterUnits="objectBoundingBox" color-interpolation-filters="sRGB"><feGaussianBlur xmlns="http://www.w3.org/2000/svg" stdDeviation="0.4259385686439398"/></filter></defs><g opacity="0.1" filter="url(#GXJRYmcxnWx5tyEaG5MygyK8vHZFAmbG)"><path d=" M 809.275 1393.88 C 809.275 1393.88 809.275 1394.956 809.176 1394.956 L 808.248 1394.959 L 808.248 1395.12 L 809.176 1395.118 C 809.275 1395.118 809.275 1394.041 809.275 1394.041 L 809.275 1393.88 Z " fill="rgb(0,0,0)"/></g><defs><filter id="lck4s1ScJOruAfPx0voHkP2ukoyBmZun" x="-200%" y="-200%" width="400%" height="400%" filterUnits="objectBoundingBox" color-interpolation-filters="sRGB"><feGaussianBlur xmlns="http://www.w3.org/2000/svg" stdDeviation="0.38350907341146473"/></filter></defs><g opacity="0.2" filter="url(#lck4s1ScJOruAfPx0voHkP2ukoyBmZun)"><path d=" M 808.348 1393.988 C 808.348 1393.988 808.25 1393.988 808.25 1394.086 L 808.25 1394.401 L 808.25 1394.401 L 808.25 1395.012 L 809.175 1395.012 C 809.274 1395.012 809.274 1394.913 809.274 1394.913 L 809.274 1394.401 L 809.274 1394.283 L 809.274 1394.165 C 809.274 1394.165 809.274 1394.067 809.175 1394.067 L 808.683 1394.067 L 808.604 1393.988 L 808.348 1393.988 Z " fill="rgb(0,0,0)"/></g><path d=" M 1000.262 1230 L 896.262 1230 C 896.262 1230 856.262 1230 856.262 1270 L 856.262 1398 L 1272.262 1398 L 1272.262 1302 C 1272.262 1302 1272.262 1262 1232.262 1262 L 1032.262 1262 L 1000.262 1230 Z " fill="rgb(93,64,55)"/><clipPath id="_clipPath_ulFJSN1qAKCQKQYDPP77fqYYY6cgOIGX"><path d=" M 1000.262 1230 L 896.262 1230 C 896.262 1230 856.262 1230 856.262 1270 L 856.262 1398 L 1272.262 1398 L 1272.262 1302 C 1272.262 1302 1272.262 1262 1232.262 1262 L 1032.262 1262 L 1000.262 1230 Z " fill="rgb(255,255,255)"/></clipPath><g clip-path="url(#_clipPath_ulFJSN1qAKCQKQYDPP77fqYYY6cgOIGX)"><defs><filter id="SeiCz3TRq5gGjQSrzmRxD71KqPFuawdk" x="-200%" y="-200%" width="400%" height="400%" filterUnits="objectBoundingBox" color-interpolation-filters="sRGB"><feGaussianBlur xmlns="http://www.w3.org/2000/svg" stdDeviation="3.4657948114847668"/></filter></defs><g opacity="0.1" filter="url(#SeiCz3TRq5gGjQSrzmRxD71KqPFuawdk)"><path d=" M 808.762 1393.866 L 808.668 1393.987 L 808.27 1393.987 C 808.27 1393.987 808.153 1393.987 808.153 1394.138 L 808.153 1395.134 L 809.253 1395.134 C 809.37 1395.134 809.37 1394.983 809.37 1394.983 L 809.37 1394.017 C 809.37 1393.866 809.253 1393.866 809.253 1393.866 L 808.762 1393.866 Z " fill="rgb(0,0,0)"/></g></g><path d=" M 1182.75 1310 L 1137.75 1310 L 1121.25 1310 L 1113.75 1310 L 1100.25 1310 L 1093.5 1310 L 1064.262 1310 L 1055.881 1318.381 L 1048.381 1325.881 L 1040.881 1333.381 L 1032.262 1342 L 1026.25 1342 L 971.25 1342 L 896.262 1342 C 896.262 1342 856.262 1342 856.262 1382 L 856.262 1539.75 L 856.262 1646 L 1129.25 1646 L 1232.262 1646 C 1272.262 1646 1272.262 1606 1272.262 1606 L 1272.262 1350 C 1272.262 1310 1232.262 1310 1232.262 1310 L 1182.75 1310 Z " fill="rgb(121,85,72)"/><g opacity="0.1"><path d=" M 1272.262 1600 C 1272.262 1600 1272.262 1633.278 1244.576 1638.87 C 1243.675 1639.052 1242.752 1639.212 1241.806 1639.35 C 1238.841 1639.783 1235.66 1640 1232.262 1640 L 1221 1640.003 L 1167.249 1640.016 L 1125.75 1640.027 L 995.253 1640.059 L 856.264 1640.094 L 856.26 1646.094 L 1232.262 1646 C 1272.262 1646 1272.262 1606 1272.262 1606 L 1272.262 1600 Z " fill="rgb(0,0,0)"/></g><g opacity="0.3"><path d=" M 1064.262 1310 L 1032.262 1342 L 896.262 1342 C 896.262 1342 856.262 1342 856.262 1382 L 856.262 1386 C 856.262 1346 896.262 1346 896.262 1346 L 1033.853 1346 L 1065.853 1314 L 1096.25 1314 L 1115.25 1314 L 1146 1314 L 1232.262 1314 C 1232.262 1314 1272.262 1314 1272.262 1354 L 1272.262 1350 C 1272.262 1310 1232.262 1310 1232.262 1310 L 1064.262 1310 Z " fill="rgb(188,170,164)"/></g></g></g></svg>