<?xml version="1.0" encoding="UTF-8" standalone="no"?><!-- Generator: Gravit.io --><svg xmlns="http://www.w3.org/2000/svg" xmlns:xlink="http://www.w3.org/1999/xlink" style="isolation:isolate" viewBox="808.006 1181.25 513.005 512" width="513.005pt" height="512pt"><g><rect x="809.012" y="1181.25" width="512" height="512" transform="matrix(1,0,0,1,0,0)" fill="none"/><g><defs><filter id="jNPhbgtCHYy1ccbRL5oTrPRvvnot7RuW" x="-200%" y="-200%" width="400%" height="400%" filterUnits="objectBoundingBox" color-interpolation-filters="sRGB"><feGaussianBlur xmlns="http://www.w3.org/2000/svg" stdDeviation="0.4259385686439398"/></filter></defs><g opacity="0.1" filter="url(#jNPhbgtCHYy1ccbRL5oTrPRvvnot7RuW)"><path d=" M 810.025 1393.13 C 810.025 1393.13 810.025 1394.206 809.926 1394.206 L 808.998 1394.209 L 808.998 1394.37 L 809.926 1394.368 C 810.025 1394.368 810.025 1393.291 810.025 1393.291 L 810.025 1393.13 Z " fill="rgb(0,0,0)"/></g><defs><filter id="cnVll3jMqjUiwJOCDmqFRr8j8cYthCMr" x="-200%" y="-200%" width="400%" height="400%" filterUnits="objectBoundingBox" color-interpolation-filters="sRGB"><feGaussianBlur xmlns="http://www.w3.org/2000/svg" stdDeviation="0.38350907341146473"/></filter></defs><g opacity="0.2" filter="url(#cnVll3jMqjUiwJOCDmqFRr8j8cYthCMr)"><path d=" M 809.098 1393.238 C 809.098 1393.238 809 1393.238 809 1393.336 L 809 1393.651 L 809 1393.651 L 809 1394.262 L 809.925 1394.262 C 810.024 1394.262 810.024 1394.163 810.024 1394.163 L 810.024 1393.651 L 810.024 1393.533 L 810.024 1393.415 C 810.024 1393.415 810.024 1393.317 809.925 1393.317 L 809.433 1393.317 L 809.354 1393.238 L 809.098 1393.238 Z " fill="rgb(0,0,0)"/></g><path d=" M 1001.012 1229.25 L 897.012 1229.25 C 897.012 1229.25 857.012 1229.25 857.012 1269.25 L 857.012 1397.25 L 1273.012 1397.25 L 1273.012 1301.25 C 1273.012 1301.25 1273.012 1261.25 1233.012 1261.25 L 1033.012 1261.25 L 1001.012 1229.25 Z " fill="rgb(175,180,43)"/><clipPath id="_clipPath_gUdzJ9YAtYhhqrBwFXSOd16Du0ObWJX5"><path d=" M 1001.012 1229.25 L 897.012 1229.25 C 897.012 1229.25 857.012 1229.25 857.012 1269.25 L 857.012 1397.25 L 1273.012 1397.25 L 1273.012 1301.25 C 1273.012 1301.25 1273.012 1261.25 1233.012 1261.25 L 1033.012 1261.25 L 1001.012 1229.25 Z " fill="rgb(255,255,255)"/></clipPath><g clip-path="url(#_clipPath_gUdzJ9YAtYhhqrBwFXSOd16Du0ObWJX5)"><defs><filter id="NYUR1x1uV2wi6yPfYBBEsmvme1hyhbLT" x="-200%" y="-200%" width="400%" height="400%" filterUnits="objectBoundingBox" color-interpolation-filters="sRGB"><feGaussianBlur xmlns="http://www.w3.org/2000/svg" stdDeviation="3.4657948114847668"/></filter></defs><g opacity="0.1" filter="url(#NYUR1x1uV2wi6yPfYBBEsmvme1hyhbLT)"><path d=" M 809.512 1393.116 L 809.418 1393.237 L 809.02 1393.237 C 809.02 1393.237 808.903 1393.237 808.903 1393.388 L 808.903 1394.384 L 810.003 1394.384 C 810.12 1394.384 810.12 1394.233 810.12 1394.233 L 810.12 1393.267 C 810.12 1393.116 810.003 1393.116 810.003 1393.116 L 809.512 1393.116 Z " fill="rgb(0,0,0)"/></g></g><path d=" M 1183.5 1309.25 L 1122 1309.25 L 1114.5 1309.25 L 1065.012 1309.25 L 1056.631 1317.631 L 1049.131 1325.131 L 1041.631 1332.631 L 1033.012 1341.25 L 1027 1341.25 L 972 1341.25 L 897.012 1341.25 C 897.012 1341.25 857.012 1341.25 857.012 1381.25 L 857.012 1539 L 857.012 1645.25 L 1130 1645.25 L 1233.012 1645.25 C 1273.012 1645.25 1273.012 1605.25 1273.012 1605.25 L 1273.012 1349.25 C 1273.012 1309.25 1233.012 1309.25 1233.012 1309.25 L 1183.5 1309.25 Z " fill="rgb(205,220,57)"/><g opacity="0.1"><path d=" M 1273.012 1599.25 C 1273.012 1599.25 1273.012 1632.528 1245.326 1638.12 C 1244.425 1638.302 1243.502 1638.462 1242.556 1638.6 C 1239.591 1639.033 1236.41 1639.25 1233.012 1639.25 L 1221.75 1639.253 L 1167.999 1639.266 L 1126.5 1639.277 L 996.003 1639.309 L 857.014 1639.344 L 857.01 1645.344 L 1233.012 1645.25 C 1273.012 1645.25 1273.012 1605.25 1273.012 1605.25 L 1273.012 1599.25 Z " fill="rgb(0,0,0)"/></g><g opacity="0.3"><path d=" M 1065.012 1309.25 L 1033.012 1341.25 L 897.012 1341.25 C 897.012 1341.25 857.012 1341.25 857.012 1381.25 L 857.012 1385.25 C 857.012 1345.25 897.012 1345.25 897.012 1345.25 L 1034.603 1345.25 L 1066.603 1313.25 L 1097 1313.25 L 1146.75 1313.25 L 1233.012 1313.25 C 1233.012 1313.25 1273.012 1313.25 1273.012 1353.25 L 1273.012 1349.25 C 1273.012 1309.25 1233.012 1309.25 1233.012 1309.25 L 1065.012 1309.25 Z " fill="rgb(230,238,156)"/></g></g></g></svg>